<?xml version="1.0" standalone="no"?>
<!DOCTYPE svg PUBLIC "-//W3C//DTD SVG 20010904//EN"
 "http://www.w3.org/TR/2001/REC-SVG-20010904/DTD/svg10.dtd">
<svg version="1.0" xmlns="http://www.w3.org/2000/svg"
 width="808.000000pt" height="659.000000pt" viewBox="0 0 808.000000 659.000000"
 preserveAspectRatio="xMidYMid meet">

<g transform="translate(0.000000,659.000000) scale(0.100000,-0.100000)"
fill="#000000" stroke="none">
<path d="M5323 6007 l-233 -239 0 -726 1 -727 210 215 c115 118 221 229 234
246 l25 31 -2 720 -3 720 -232 -240z"/>
<path d="M4045 4702 c-428 -438 -1171 -1197 -1650 -1686 -478 -489 -876 -897
-883 -908 -12 -17 13 -46 290 -331 167 -171 331 -340 364 -375 l60 -64 184
194 c236 246 676 702 1036 1073 154 160 529 548 832 864 l552 574 0 728 c0
401 -1 729 -2 729 -2 0 -354 -359 -783 -798z"/>
<path d="M1529 1288 c17 -24 181 -244 364 -490 l332 -447 1663 0 c914 -1 1662
1 1662 4 0 6 -56 79 -512 668 l-239 307 -1650 0 -1651 0 31 -42z"/>
</g>
</svg>
