<?xml version="1.0" standalone="no"?>
<!DOCTYPE svg PUBLIC "-//W3C//DTD SVG 20010904//EN"
 "http://www.w3.org/TR/2001/REC-SVG-20010904/DTD/svg10.dtd">
<svg version="1.0" xmlns="http://www.w3.org/2000/svg"
 width="92.000000pt" height="92.000000pt" viewBox="0 0 92.000000 92.000000"
 preserveAspectRatio="xMidYMid meet">

<g transform="translate(0.000000,92.000000) scale(0.100000,-0.100000)"
fill="#000000" stroke="none">
<path d="M126 848 l-59 -59 109 -110 109 -109 -110 -110 -110 -110 60 -61 c74
-75 101 -88 126 -60 11 11 19 25 19 31 0 19 16 10 34 -21 14 -23 15 -34 7 -42
-9 -9 -11 -8 -6 4 3 9 -1 21 -9 28 -13 11 -18 10 -32 -3 -9 -10 -15 -19 -12
-21 15 -15 249 -94 264 -89 13 4 15 3 6 -3 -9 -7 22 -22 100 -51 l112 -42 61
60 60 60 -110 110 -110 110 108 108 109 109 -62 62 c-62 62 -63 62 -284 145
-121 47 -243 93 -271 103 l-50 20 -59 -59z m134 17 c0 -12 -19 -12 -23 0 -4 9
-1 12 9 8 7 -3 14 -7 14 -8z m21 -14 c-14 -9 -7 -31 10 -31 6 0 8 4 4 9 -3 5
0 13 6 17 8 4 9 3 5 -5 -4 -6 0 -14 9 -17 9 -4 14 -13 11 -20 -7 -18 8 -18 23
0 10 11 8 16 -9 21 -12 4 -19 9 -17 12 3 2 22 -5 44 -17 21 -12 30 -19 21 -16
-10 3 -18 1 -18 -4 0 -6 -7 -10 -15 -10 -8 0 -15 -4 -15 -9 0 -12 49 -71 58
-70 21 3 31 -3 34 -23 2 -12 9 -23 17 -26 8 -3 11 0 7 6 -3 5 1 12 9 16 8 3
17 1 20 -4 9 -14 -4 -32 -17 -24 -6 4 -9 1 -7 -5 3 -7 7 -11 9 -10 3 1 15 -3
28 -10 15 -8 21 -18 18 -28 -4 -10 -2 -13 8 -10 17 7 40 -18 31 -33 -3 -5 -2
-10 3 -10 19 0 21 15 5 39 -12 18 -12 23 -2 15 8 -6 26 -9 41 -8 23 2 25 0 15
-11 -6 -7 -13 -9 -15 -4 -6 14 -23 10 -20 -4 3 -14 -60 -93 -68 -85 -2 3 5 14
17 26 22 25 17 51 -7 31 -7 -6 -12 -15 -9 -19 3 -4 -2 -13 -11 -20 -8 -7 -13
-19 -10 -25 5 -15 -101 -128 -116 -123 -6 2 6 15 26 28 20 14 36 28 36 33 0
14 -18 7 -43 -19 -14 -14 -31 -23 -36 -19 -7 4 -8 -1 -4 -11 5 -13 3 -16 -10
-11 -21 8 -35 -12 -32 -45 2 -17 -2 -29 -12 -32 -13 -5 -14 -4 -3 9 15 18 0
21 -18 3 -6 -6 -19 -13 -29 -14 -9 -2 39 53 107 121 84 85 127 121 132 112 6
-9 8 -8 8 2 0 8 7 23 16 32 16 17 13 22 -40 70 -31 29 -56 58 -56 66 0 7 -6
13 -12 13 -7 0 -44 31 -81 70 -63 63 -76 90 -44 90 8 0 7 -3 -2 -9z m194 -71
c4 -6 12 -7 18 -3 8 4 8 1 -1 -9 -8 -10 -21 -14 -34 -10 -21 5 -21 6 -2 13 15
6 12 8 -14 8 -18 1 -31 -3 -28 -8 3 -4 0 -16 -7 -25 -12 -16 -14 -16 -26 -2
-11 13 -11 17 4 22 11 5 13 9 5 14 -6 4 9 7 34 8 25 1 48 -2 51 -8z m-25 -40
c0 -5 -7 -10 -16 -10 -8 0 -12 5 -9 10 3 6 10 10 16 10 5 0 9 -4 9 -10z m134
-19 c3 -5 16 -7 29 -4 18 4 19 3 7 -6 -13 -9 -13 -11 1 -11 8 0 20 5 27 12 8
8 12 8 12 1 0 -6 14 -13 31 -17 l32 -6 -29 -22 c-33 -27 -58 -32 -50 -12 4 9
-11 25 -42 44 -26 16 -42 30 -35 30 6 0 14 -4 17 -9z m-9 -21 c3 -5 1 -10 -4
-10 -6 0 -11 5 -11 10 0 6 2 10 4 10 3 0 8 -4 11 -10z m-45 -35 c0 -8 -7 -15
-15 -15 -26 0 -18 20 13 29 1 1 2 -6 2 -14z m26 -20 c-6 -24 -26 -36 -26 -15
0 6 5 10 10 10 6 0 10 10 10 22 0 12 3 19 6 15 4 -3 4 -18 0 -32z m-99 -351
c9 -9 6 -11 -12 -11 -14 0 -30 6 -36 13 -9 11 -8 14 1 14 10 0 9 4 -1 18 -10
13 -8 12 11 -3 13 -11 30 -25 37 -31z m-207 -34 c0 -5 -5 -10 -11 -10 -6 0 -8
-8 -5 -17 5 -15 4 -15 -9 1 -8 11 -15 14 -15 8 0 -7 -5 -12 -12 -12 -6 0 -3 9
7 20 19 21 45 27 45 10z m266 -32 c21 -24 23 -28 5 -13 -23 19 -24 19 -17 1 5
-16 4 -17 -8 -7 -8 7 -14 21 -13 32 1 10 2 19 2 19 1 0 14 -15 31 -32z m-141
-38 c-3 -5 -12 -10 -18 -10 -7 0 -6 4 3 10 19 12 23 12 15 0z m55 1 c0 -5 -6
-12 -12 -14 -9 -4 -8 -6 3 -6 8 -1 21 5 28 12 11 10 12 9 6 -2 -6 -10 -4 -13
6 -9 17 6 24 -28 8 -37 -5 -3 -6 1 -3 9 6 17 4 17 -53 19 -31 1 -32 2 -16 19
17 19 33 24 33 9z m182 -56 c4 -5 4 -13 1 -19 -4 -5 1 -7 11 -3 9 4 14 3 11
-2 -3 -5 3 -12 12 -15 10 -3 5 -3 -12 0 -16 4 -44 7 -62 8 -22 1 -29 4 -22 13
6 6 21 10 35 8 20 -2 22 0 12 12 -9 11 -13 11 -19 1 -10 -14 -11 -13 -14 20
-2 22 -2 22 19 5 11 -10 24 -22 28 -28z m72 -71 c20 -19 20 -25 1 -18 -8 4
-15 10 -15 16 0 5 -4 7 -9 3 -5 -3 -12 -1 -16 5 -10 16 22 12 39 -6z"/>
<path d="M300 810 c0 -5 5 -10 11 -10 5 0 7 5 4 10 -3 6 -8 10 -11 10 -2 0 -4
-4 -4 -10z"/>
<path d="M536 577 c3 -10 9 -15 12 -12 3 3 0 11 -7 18 -10 9 -11 8 -5 -6z"/>
<path d="M415 449 c-37 -38 -48 -53 -27 -38 17 12 32 27 32 32 0 5 6 5 13 -1
9 -8 18 -4 34 14 13 14 17 26 11 30 -6 4 -5 10 3 15 8 5 9 9 4 9 -6 0 -37 -28
-70 -61z m45 16 c-7 -8 -17 -15 -23 -15 -5 0 -2 9 8 20 21 23 35 19 15 -5z"/>
<path d="M279 313 l-24 -28 28 24 c25 23 32 31 24 31 -2 0 -14 -12 -28 -27z"/>
<path d="M385 750 c3 -5 8 -10 11 -10 2 0 4 5 4 10 0 6 -5 10 -11 10 -5 0 -7
-4 -4 -10z"/>
<path d="M640 693 c0 -5 7 -16 14 -25 12 -17 14 -17 31 2 16 18 16 20 2 20
-10 0 -17 -5 -17 -11 0 -5 -5 -7 -10 -4 -6 4 -8 11 -5 16 4 5 1 9 -4 9 -6 0
-11 -3 -11 -7z"/>
<path d="M420 300 c0 -5 5 -10 11 -10 5 0 7 5 4 10 -3 6 -8 10 -11 10 -2 0 -4
-4 -4 -10z"/>
</g>
</svg>
